<?xml version="1.0" encoding="UTF-8" standalone="no"?>
<!-- Created with Inkscape (http://www.inkscape.org/) -->

<svg
   width="822.07495mm"
   height="964.1618mm"
   viewBox="0 0 822.07495 964.1618"
   version="1.1"
   id="svg5"
   inkscape:version="1.2.1 (9c6d41e, 2022-07-14)"
   sodipodi:docname="background.svg"
   xml:space="preserve"
   xmlns:inkscape="http://www.inkscape.org/namespaces/inkscape"
   xmlns:sodipodi="http://sodipodi.sourceforge.net/DTD/sodipodi-0.dtd"
   xmlns="http://www.w3.org/2000/svg"
   xmlns:svg="http://www.w3.org/2000/svg"><sodipodi:namedview
     id="namedview7"
     pagecolor="#505050"
     bordercolor="#ffffff"
     borderopacity="1"
     inkscape:showpageshadow="0"
     inkscape:pageopacity="0"
     inkscape:pagecheckerboard="1"
     inkscape:deskcolor="#505050"
     inkscape:document-units="mm"
     showgrid="false"
     showborder="false"
     inkscape:zoom="0.1766854"
     inkscape:cx="885.75511"
     inkscape:cy="1296.0889"
     inkscape:window-width="1440"
     inkscape:window-height="772"
     inkscape:window-x="0"
     inkscape:window-y="25"
     inkscape:window-maximized="1"
     inkscape:current-layer="layer1" /><defs
     id="defs2"><inkscape:path-effect
       effect="spiro"
       id="path-effect1406"
       is_visible="true"
       lpeversion="1" /></defs><g
     inkscape:label="Layer 1"
     inkscape:groupmode="layer"
     id="layer1"
     transform="translate(231.55932,558.82091)"><g
       id="g2768"><rect
         style="fill:#f5f5f0;fill-opacity:1;stroke:none;stroke-width:0.264583"
         id="rect788"
         width="821.78387"
         height="484.5127"
         x="-231.55931"
         y="-557.97968" /><rect
         style="fill:#f5f5f0;fill-opacity:1;stroke:none;stroke-width:0.264583"
         id="rect788-9"
         width="821.78387"
         height="484.5127"
         x="-231.55931"
         y="-79.171822" /></g><path
       id="path1700-3-8"
       style="fill:#e51865;fill-opacity:1;stroke:none;stroke-width:1.15066"
       d="m 531.47465,-558.28282 c -0.22222,0 -1.14049,0.006 -1.36818,0.006 l -138.18709,0.0153 c -108.62818,0.0118 -197.16017,-0.28184 -196.59153,0.28184 0.56865,0.56368 2.69834,4.79599 4.58703,8.47123 3.7867,7.36867 6.34182,18.60295 6.99177,29.3847 0.0997,2.03917 0.25415,4.02575 0.25219,6.1584 -8.5e-4,0.16995 -0.009,0.32824 -0.0118,0.49666 -0.009,2.13469 -0.1462,3.95355 -0.25034,5.84227 -0.83806,11.33549 -3.94456,20.41906 -12.38332,37.8818 -6.78748,14.04564 -5.59209,27.53518 2.93242,33.09482 5.81529,3.79269 9.61973,2.74866 22.45251,-6.1629 8.91582,-6.19149 11.14309,-7.18495 16.10336,-7.18495 7.88661,0 14.14344,5.14979 21.71117,17.86899 11.85809,19.93017 15.09452,24.50192 19.78077,27.945 6.30532,4.63262 12.35137,4.58477 20.99419,-0.16705 21.26442,-11.69117 21.48147,-11.77673 28.38437,-11.22201 8.17743,0.65714 14.92629,5.01377 22.17778,15.06775 0.38542,0.54085 0.74162,0.97037 1.133,1.53848 4.48724,6.54699 9.20041,15.29052 14.60061,26.82415 10.82312,23.11593 18.75217,35.08857 27.389,41.35484 5.87359,4.26145 7.37758,4.75961 14.15775,4.69 6.44303,-0.066 8.65553,-0.77021 14.68226,-4.67204 3.90283,-2.52674 10.7153,-6.84264 15.13848,-9.59102 6.23224,-3.87242 12.31899,-5.64619 18.15681,-5.6456 0.80112,0.0292 1.4569,-0.0337 2.34826,0.0315 0.27321,0.0238 0.53822,0.0998 0.81014,0.13207 1.32803,0.13033 2.61244,0.40396 3.88939,0.70236 16.98036,4.61212 31.04379,26.02342 38.48522,61.02994 2.47186,11.62818 4.06082,25.72112 7.28295,64.60443 1.03982,12.54821 2.72424,27.63007 3.74318,33.51424 8.5608,49.43524 32.16324,85.49342 65.31261,99.781125 4.4232,1.90644 9.21256,3.499509 10.64361,3.540369 l 2.60225,0.0745 V -320.4391 -558.28282 Z"
       sodipodi:nodetypes="sccssccccssssssssccsscssccccsscsccccs" /><path
       id="path1700-3"
       style="fill:#991044;fill-opacity:1;stroke:none;stroke-width:1.03341"
       d="m 534.73661,-558.28282 c -0.21141,0 -1.08501,0.005 -1.30162,0.005 l -131.46498,0.013 c -103.34396,0.01 -187.1222,-0.54066 -186.58122,-0.0628 0.54099,0.47791 2.11997,4.36789 3.91678,7.48387 3.6025,6.24736 6.03333,15.77211 6.65165,24.91318 0.0949,1.72887 0.24179,3.41315 0.23993,5.22127 -8.7e-4,0.14409 -0.009,0.27829 -0.0112,0.42108 -0.009,1.80985 -0.13909,3.35194 -0.23816,4.95325 -0.7973,9.61055 -3.75268,17.31186 -11.78094,32.11727 -6.4573,11.90829 -5.32006,23.34511 2.78977,28.05874 5.5324,3.21555 9.15178,2.33038 21.36031,-5.22509 8.48211,-5.24932 10.60103,-6.09161 15.32001,-6.09161 7.50297,0 13.45543,4.36614 20.65503,15.14984 11.28126,16.89738 14.36025,20.77343 18.81854,23.69257 5.9986,3.92768 11.75053,3.88711 19.97293,-0.14163 20.23001,-9.9121 20.4365,-9.98465 27.00361,-9.51434 7.77964,0.55715 14.20019,4.25083 21.09894,12.77488 0.36667,0.45855 0.70554,0.8227 1.07789,1.30437 4.26895,5.55072 8.75285,12.96374 13.89036,22.74228 10.29663,19.59835 17.83997,29.74909 26.05666,35.06182 5.58787,3.61298 7.0187,4.03532 13.46905,3.9763 6.1296,-0.056 8.23448,-0.653 13.96803,-3.96108 3.71298,-2.14224 10.19406,-5.80139 14.40208,-8.13154 5.92907,-3.28315 11.71973,-4.78701 17.27357,-4.7865 0.76215,0.0248 1.38602,-0.0286 2.23403,0.0267 0.25991,0.0202 0.51203,0.0846 0.77073,0.11197 1.26343,0.1105 2.48536,0.34249 3.70019,0.59547 16.15435,3.91029 29.53366,22.0634 36.6131,51.74293 2.35162,9.8587 3.86329,21.80711 6.92868,54.7735 0.98923,10.63873 2.59171,23.42556 3.56109,28.41433 8.14436,41.9126 30.59866,72.48376 62.13547,84.59729 4.20804,1.61633 8.76442,2.96698 10.12586,3.00163 l 2.47566,0.0632 V -356.6321 -558.28282 Z"
       sodipodi:nodetypes="sccssccccssssssssccsssssccccsscsccccs" /><path
       id="path1700-0"
       style="fill:#650a2d;fill-opacity:1;stroke:none;stroke-width:0.901456"
       d="m 537.56848,-557.84715 c -0.20192,0 -1.03629,0.004 -1.24317,0.004 l -125.56129,0.0103 c -98.7031,0.008 -179.05072,-1.07082 -178.53403,-0.69007 0.51669,0.38075 2.35637,4.12003 4.0725,6.60258 3.44072,4.97737 5.76238,12.56588 6.35293,19.84872 0.0906,1.37742 0.23094,2.71931 0.22916,4.15987 -9.1e-4,0.1148 -0.008,0.22172 -0.0107,0.33548 -0.008,1.44194 -0.13285,2.67054 -0.22746,3.94633 -0.7615,7.65688 -3.58416,13.79264 -11.25191,25.58834 -6.16732,9.48752 -5.08115,18.59942 2.6645,22.35484 5.28395,2.56187 8.7408,1.85665 20.40108,-4.16291 8.10121,-4.18222 10.12498,-4.85328 14.63204,-4.85328 7.16603,0 12.85119,3.47857 19.72748,12.07012 10.77465,13.4624 13.71537,16.55052 17.97345,18.87624 5.72923,3.12925 11.22285,3.09692 19.076,-0.11282 19.32156,-7.89713 19.51877,-7.95493 25.79097,-7.58022 7.43029,0.44388 13.56251,3.38669 20.15145,10.17795 0.3502,0.36532 0.67386,0.65545 1.02949,1.03921 4.07726,4.42234 8.35978,10.3284 13.26659,18.11912 9.83423,15.61431 17.03882,23.70157 24.88654,27.93429 5.33694,2.87853 6.70351,3.21501 12.86419,3.16799 5.85434,-0.0447 7.86469,-0.52026 13.34076,-3.15585 3.54625,-1.70676 9.7363,-4.62206 13.75534,-6.47853 5.6628,-2.61574 11.19343,-3.81388 16.49786,-3.81347 0.72793,0.0198 1.32378,-0.0228 2.13371,0.0213 0.24823,0.0161 0.48903,0.0674 0.73612,0.0892 1.20668,0.088 2.37375,0.27286 3.53403,0.47441 15.4289,3.11539 28.20739,17.57826 34.96891,41.2244 2.24602,7.85458 3.68981,17.37406 6.61754,43.63889 0.9448,8.47605 2.47531,18.66351 3.40117,22.63815 7.77863,33.39244 29.22456,57.74896 59.34515,67.39999 4.01907,1.28777 8.37085,2.36385 9.67114,2.39146 l 2.36449,0.0504 v -160.65815 -160.65828 z"
       sodipodi:nodetypes="scsssccccssssssssccsssssccccsscsccccs" /><path
       style="fill:none;fill-opacity:1;stroke:none;stroke-width:0.264999"
       d="m 253.53194,-557.97965 c 6.00692,5.19452 10.04101,12.61736 11.13214,20.48346 1.09114,7.8661 -0.77022,16.10673 -5.13645,22.74014 -2.06099,3.13117 -4.64392,5.89753 -6.64541,9.06707 -1.00074,1.58477 -1.85544,3.27443 -2.38197,5.07325 -0.52652,1.79882 -0.71725,3.71352 -0.39442,5.5598 0.34772,1.98863 1.29368,3.86265 2.65507,5.35334 1.36139,1.49069 3.13063,2.59754 5.05367,3.21193 2.72932,0.87199 5.70381,0.74954 8.48753,0.0709 2.78372,-0.67861 5.40666,-1.89067 7.96302,-3.18473 2.55637,-1.29405 5.07336,-2.6804 7.73503,-3.74111 2.66167,-1.06071 5.4984,-1.79351 8.36243,-1.71036 4.09244,0.11881 8.0011,1.908 11.26311,4.38215 3.26201,2.47416 5.95208,5.61317 8.541,8.78486 2.58893,3.1717 5.11909,6.41833 8.13982,9.18191 3.02073,2.76357 6.59827,5.05036 10.59978,5.91646 3.05137,0.66045 6.24166,0.47083 9.29298,-0.18987 3.05133,-0.66069 5.98291,-1.78129 8.86368,-2.98471 5.76155,-2.40685 11.576,-5.2103 17.81746,-5.39068 3.88377,-0.11224 7.76278,0.82025 11.29032,2.44897 3.52754,1.62872 6.71408,3.94015 9.5483,6.59787 5.66844,5.31543 9.90231,11.94099 14.279,18.36202 4.14572,6.08217 8.53312,12.1102 14.17677,16.83554 5.64365,4.72535 12.7241,8.08774 20.08431,8.00373 6.36211,-0.0726 12.40093,-2.66358 18.14683,-5.39605 5.74589,-2.73247 11.52903,-5.69339 17.8273,-6.59532 5.14914,-0.73737 10.46762,-0.0405 15.33963,1.78183 4.872,1.82235 9.30118,4.75069 13.05361,8.353 7.50487,7.20462 12.19389,16.93039 14.97909,26.95397 5.57039,20.04717 4.06735,41.65354 10.58885,61.41178 4.69923,14.23731 13.56326,27.07239 25.21359,36.50921 11.65033,9.43682 26.04627,15.44241 40.94905,17.08281"
       id="path1404"
       inkscape:path-effect="#path-effect1406"
       inkscape:original-d="m 253.53194,-557.97965 c 1.99883,14.40813 3.99739,28.816 5.99569,43.2236 1.99829,14.40761 -6.28094,13.13368 -9.4218,19.70012 -3.14086,6.56644 5.13943,5.71044 7.70874,8.56527 2.56932,2.85482 21.69896,-5.70992 32.54801,-8.56527 10.84908,-2.85535 25.69607,18.84386 38.54371,28.26538 12.84764,9.42154 23.98302,-5.70991 35.97412,-8.56526 11.99113,-2.85536 23.412,18.27284 35.11762,27.40886 11.70559,9.13602 22.84098,16.55978 34.26108,24.83927 11.42008,8.2795 23.983,-7.99398 35.97413,-11.99137 11.9911,-3.99739 35.97439,65.66732 53.96118,98.50058 17.9868,32.83327 44.10869,35.72827 66.16264,53.59202" /><path
       style="fill:none;fill-opacity:1;stroke:none;stroke-width:0.264999"
       d="M 590.22453,-557.97965 263.861,-558.86445"
       id="path1558"
       sodipodi:nodetypes="cc" /><path
       style="fill:none;fill-opacity:1;stroke:#1a1a1a;stroke-width:0.264999"
       d="m 590.22453,-557.97965 0.13253,274.9732"
       id="path1560" /><path
       id="path1700"
       style="fill:#340517;fill-opacity:1;stroke:none;stroke-width:0.792626"
       d="m 421.32951,-558.43754 c -93.09078,-0.2673 -168.93711,-0.40921 -168.44979,-0.0971 0.48731,0.31212 2.21805,3.25723 3.8366,5.29226 4.02734,6.4612 6.18962,12.98209 6.20786,19.68061 -0.22369,9.7718 -6.83077,19.09567 -10.83679,24.48551 -5.81668,7.77722 -4.79226,15.24653 2.513,18.32496 4.98352,2.10005 8.24383,1.52196 19.24115,-3.41246 7.6406,-3.4283 9.5493,-3.97839 13.80011,-3.97839 6.7586,0 12.12052,2.8515 18.60585,9.89426 10.16204,11.03555 12.93556,13.56698 16.95155,15.47345 5.40348,2.56513 10.58476,2.53864 17.9914,-0.0925 18.22301,-6.47353 18.40901,-6.52091 24.32459,-6.21375 7.00783,0.36387 12.7914,2.77618 19.00571,8.34319 0.3303,0.29947 0.63555,0.5373 0.97096,0.85186 3.84544,3.62515 7.88448,8.46653 12.51231,14.85283 9.27509,12.79955 16.07005,19.42893 23.47158,22.89863 5.03349,2.35961 6.32236,2.63544 12.13277,2.5969 5.52149,-0.0367 7.41753,-0.42648 12.58227,-2.58695 3.34461,-1.39909 9.18271,-3.78885 12.97324,-5.31066 5.34084,-2.1442 10.55702,-3.12636 15.55986,-3.12602 0.68654,0.0163 1.24852,-0.0187 2.01239,0.0174 0.23413,0.0132 0.46124,0.0552 0.69427,0.0731 1.13808,0.0722 2.2388,0.22367 3.3331,0.38889 14.55167,2.55378 26.60362,14.40946 32.98071,33.79296 2.11831,6.43864 3.48001,14.24207 6.24128,35.77218 0.89109,6.94809 2.33459,15.29907 3.2078,18.55721 7.33637,27.37283 27.56296,47.33865 55.971,55.2499 3.79056,1.05562 7.89491,1.93772 9.12127,1.96036 l 2.23006,0.0413 V -426.4042 l 10e-6,-132.41717 c -56.43855,-0.0895 -112.70904,0.3552 -169.18612,0.38383 z"
       sodipodi:nodetypes="cscccsssssssccsssssccccsscsscccc" /></g></svg>
