<?xml version="1.0" encoding="UTF-8" standalone="no"?>
<!-- Created with Inkscape (http://www.inkscape.org/) -->

<svg
   width="248.84116mm"
   height="268.80154mm"
   viewBox="0 0 248.84116 268.80154"
   version="1.1"
   id="svg5"
   xml:space="preserve"
   xmlns="http://www.w3.org/2000/svg"
   xmlns:svg="http://www.w3.org/2000/svg"><defs
     id="defs2" /><g
     id="layer1"
     transform="translate(449.77937,-313.11251)"><path
       style="fill:#1a1a1a;stroke:#1a1a1a;stroke-width:0.865"
       d="m -344.57915,345.74921 3.31502,-0.46347 0.25874,1.10244 -2.31021,4.93673 z"
       id="path883" /><path
       style="fill:#1a1a1a;stroke:#1a1a1a;stroke-width:0.865"
       d="m -316.57337,342.25796 -1.43325,-0.35793 1.18359,13.24755 2.96492,-6.36677 -0.28088,-2.37196 z"
       id="path731" /><path
       style="fill:#a05a2c;stroke:#a05a2c;stroke-width:0.865"
       d="m -343.3156,351.32491 2.31021,-4.93673 -1.31707,-5.61184 8.01692,15.08289 4.29477,2.66886 h 3.76989 l 3.42863,-3.1495 4.5978,-15.80478 1.39142,15.57377 -4.15092,6.33561 -6.21075,3.96364 -1.84036,1.15036 -1.80964,1.36827 -4.16214,-2.3971 -1.72892,-1.86502 -5.32633,-6.80276 -1.26351,-5.57567"
       id="path675" /><path
       style="fill:#1a1a1a;fill-opacity:1;stroke:#1a1a1a;stroke-width:0.865;stroke-dasharray:none;stroke-opacity:1"
       d="m -223.42773,471.56017 -0.26069,-2.76314 5.65999,-0.20179 1.71653,2.43436 2.70247,1.07876 -1.51649,0.65891 h -3.99486 l -4.30695,-1.2071"
       id="path18785-8" /><path
       style="fill:#1a1a1a;stroke:#1a1a1a;stroke-width:0.865;stroke-dasharray:none"
       d="m -320.15161,489.70039 -1.18597,2.63301 0.18727,2.27921 -8.48907,11.20342 h 4.36938 l 2.12228,-0.49936 0.93628,-0.81146 1.6229,-2.2471 1.23957,-2.98301 0.50834,-7.44042 z"
       id="path5151-0" /><path
       style="fill:#1a1a1a;stroke:#1a1a1a;stroke-width:0.865;stroke-dasharray:none"
       d="m -357.89135,488.24895 -1.45352,2.29188 1.36525,2.64264 z"
       id="path5261-2" /><path
       style="fill:#1a1a1a;fill-opacity:1;stroke:#1a1a1a;stroke-width:0.865;stroke-dasharray:none;stroke-opacity:1"
       d="m -354.65279,453.77534 -0.25093,0.83642 -2.0863,-0.18584 -1.31079,-0.56177 0.0312,-1.02993 0.43693,-0.37451 1.21719,0.18725 0.49935,0.39264 h 1.11345 l 0.57189,-0.64231 0.90509,-0.28089 0.71781,0.37452 0.87387,0.54868 h 1.2796 l 0.0687,0.67316 -4.06709,0.0626"
       id="path23800-4" /><path
       style="fill:#d40000;stroke:none;stroke-width:0.865;stroke-dasharray:none"
       d="m -274.84221,488.83232 c 0,0 -4.72427,2.61036 0,0 4.72424,-2.61036 11.31245,-4.10268 14.17196,-7.83188 2.85951,-3.7292 8.57776,-11.1884 8.57776,-11.1884 l -27.59802,-23.96931 v -2.50989 l -2.98358,-4.84831 -5.59421,5.22125 -19.76617,5.5942 -22.37679,4.10242 -24.24153,0.37294 -1.11884,3.72947 3.35652,4.47536 -3.72946,5.96714 -3.72947,23.12269 c 0,0 3.97836,-6.21551 5.96715,-9.32367 5.34594,-0.62132 10.6914,-1.24289 16.0367,-1.86473 4.60003,1.36776 9.19961,2.73521 13.79902,4.10241 1.86504,2.61095 3.72973,5.22152 5.5942,7.83188 -0.49701,2.9839 -0.54171,5.90499 -1.03924,8.8883 l 9.98996,-15.97428 -0.37295,-1.49179 5.96714,-0.37295 9.32367,3.72947 10.06956,2.61062 3.35651,-2.23768 z"
       id="path407-8" /><path
       style="fill:#aa0000;stroke:#aa0000;stroke-width:0.865;stroke-dasharray:none"
       d="m -309.89918,483.23812 -5.7286,-5.87382 h 6.45393 l -0.44821,-1.61347 7.70885,2.77877 20.52706,-0.44819 19.09284,-2.24095 0.0396,6.75006 -12.58848,6.2418 -6.3401,-1.86474 -3.35651,2.23768 -19.39324,-6.34009 -5.96712,0.37295"
       id="path1503-3" /><path
       style="fill:#800000;stroke:#800000;stroke-width:0.865;stroke-dasharray:none"
       d="m -354.65279,453.77534 2.09425,2.88264 2.68915,-0.53782 8.33631,-0.0896 2.95804,3.58551 10.03943,0.17927 9.41197,-6.09536 7.88813,-1.25493 10.21868,1.34456 2.86544,-7.28669 -9.88306,2.7971 -22.37679,4.10241 -24.24155,0.37295"
       id="path1505-9" /><path
       style="fill:#1a1a1a;stroke:#1a1a1a;stroke-width:0.865;stroke-dasharray:none"
       d="m -281.876,456.95174 1.32101,-1.58521 v -2.32693 l 1.0568,-1.28383 11.62487,14.61916 -2.20168,2.37781 -8.98284,-11.36067 -1.40909,1.23295 z"
       id="path1507-0" /><path
       style="fill:#800000;stroke:#800000;stroke-width:0.865;stroke-dasharray:none"
       d="m -355.24226,501.55271 c 0.70736,-1.45635 1.41478,-2.91281 2.45519,-4.01564 1.04042,-1.10284 2.41363,-1.85186 4.09906,-2.22635 1.68543,-0.37449 3.68283,-0.37449 5.55546,-0.0207 1.87263,0.35378 3.62033,1.06118 5.20163,1.9143 1.5813,0.85312 2.99612,1.85182 4.18206,3.03786 1.18594,1.18603 2.14302,2.55923 2.60065,3.7868 0.45763,1.22757 0.41602,2.30949 0.37441,3.39117"
       id="path4646-5" /><path
       style="fill:#800000;stroke:#800000;stroke-width:0.865;stroke-dasharray:none"
       d="m -355.24226,501.5527 1.74773,11.36037 0.49938,5.24324 0.24966,4.24453 -1.24838,3.62034 -0.24969,3.37066 2.49679,6.86615 8.11453,15.29662 1.99745,-2.93754 3.87001,-1.62291 5.99228,-0.12484 4.86873,2.8713 -1.62293,-9.2381 1.74776,-8.23938 -5.49293,-15.10554 -0.74904,-3.4955 2.24711,-6.24196"
       id="path4704-2" /><path
       style="fill:#ff5555;stroke:#ff5555;stroke-width:0.865;stroke-dasharray:none"
       d="m -340.99259,555.96792 1.46285,-0.94856 8.43024,3.39857 3.75165,4.28132 2.28124,1.63308 1.69114,0.30896 -1.69114,-6.09095 -0.69228,-0.52965 -0.0838,-4.28522 -2.21588,-1.9038 -3.12097,-1.40444 -4.15092,-0.71782 -3.21461,0.37452 -2.87128,2.30723 z"
       id="path5824-2" /><path
       style="fill:#ffffff;stroke:#ffffff;stroke-width:0.865;stroke-dasharray:none"
       d="m -343.63224,551.55461 2.02864,3.11715 0.18728,-2.2806 2.87128,-2.30723 3.21461,-0.37452 2.99614,0.34331 2.30952,0.74903 1.96623,1.02992 2.21588,1.9038 -1.06111,-3.99485 -4.86873,-2.8713 -5.99228,0.12484 -3.87001,1.62291 -1.99745,2.93754"
       id="path5041-7" /><path
       style="fill:#d38d5f;stroke:#d38d5f;stroke-width:0.865;stroke-dasharray:none"
       d="m -357.97961,493.18347 2.73735,8.36923 2.4552,-4.01564 4.09906,-2.22634 5.55546,-0.0207 5.20163,1.9143 4.18205,3.03786 2.60065,3.7868 0.37441,3.39117 9.6235,-12.80753 -0.18727,-2.27922 1.18597,-2.633 -3.91957,-5.71638 -13.79902,-4.10241 -16.03669,1.86473 -3.98447,6.50261 -0.0883,4.93453"
       id="path5263-3" /><path
       style="fill:#ffff82;fill-opacity:1;stroke:#ffff82;stroke-width:0.865;stroke-dasharray:none;stroke-opacity:1"
       d="m -340.99259,555.96792 h -8.75676 l -2.37194,-1.23374 -3.54843,-0.12483 -7.56224,-1.2484 -2.62162,1.37323 -0.99873,1.23374 -0.74903,1.26378 -0.12483,1.3725 0.24966,1.99742 0.99872,2.62163 1.87259,2.8713 3.62032,3.37066 4.24455,2.8713 3.99484,1.12355 4.69841,0.8693 4.05234,0.50393 2.12071,0.49936 2.54481,1.46716 4.46695,2.02833 5.21202,1.87259 3.33476,0.74903 2.28301,-1.62291 2.49679,-1.49807 0.87387,-2.99613 v -2.24711 l -0.9987,-3.37066 -1.71495,-5.07359 -1.69114,-0.30896 -2.28124,-1.63308 -3.75165,-4.28132 -4.21511,-1.69929 -4.21513,-1.69928 -1.46285,0.94856"
       id="path5898-7" /><path
       style="fill:#1a1a1a;fill-opacity:1;stroke:#1a1a1a;stroke-width:0.865;stroke-dasharray:none;stroke-opacity:1"
       d="m -364.54276,554.04756 8.17695,3.18414 4.49421,0.99798 4.49419,3.99485 3.18219,4.49421 8.42786,1.99743 7.86487,1.24839 3.74518,1.62291 2.99614,-0.18726 0.49935,3.93244 -0.87387,2.99613 -4.7798,3.12098 -3.33476,-0.74903 -2.80887,-0.9363 -4.80629,-1.87259 -3.30303,-1.74774 -5.42973,-1.43565 -6.74732,-1.24839 -3.99484,-1.12355 -4.24455,-2.8713 -3.62032,-3.37066 -0.93628,-1.43565 -0.93631,-1.43565 -0.49935,-1.31082 -0.49937,-1.31081 -0.24966,-1.99742 0.12483,-1.3725 0.71878,-1.99099 2.74306,-1.40438"
       id="path9218-9" /><path
       style="fill:#d38d5f;fill-opacity:1;stroke:#d38d5f;stroke-width:0.865;stroke-dasharray:none;stroke-opacity:1"
       d="m -252.09249,469.81204 7.01659,8.01117 2.47169,2.29514 1.58894,4.06063 0.0883,4.06063 -0.88275,2.55997 -1.58894,3.00133 -2.20686,3.26616 -4.67857,3.63712 -3.61924,-2.57782 -3.70755,-0.97102 -4.20873,-1.76549 -4.00079,-2.64824 -3.88408,-2.55996 -5.13768,-1.34934 12.58847,-6.24181 5.96694,-7.53039 z"
       id="path10881-0" /><path
       style="fill:#502d16;fill-opacity:1;stroke:#502d16;stroke-width:0.865;stroke-dasharray:none;stroke-opacity:1"
       d="m -262.25368,482.59051 -0.67003,4.23117 4.64317,2.85992 4.15798,1.13494 4.18211,2.5592 4.33494,3.69133 -4.67858,3.63711 -3.61923,-2.57781 -3.70756,-0.97102 -4.20872,-1.76549 -4.00079,-2.64824 -3.88409,-2.55996 -5.13768,-1.34934 12.58845,-6.24181"
       id="path14372-2" /><path
       style="fill:#ff5555;fill-opacity:1;stroke:#ff5555;stroke-width:0.865;stroke-dasharray:none;stroke-opacity:1"
       d="m -233.9533,462.11033 1.58894,-0.22069 3.35444,0.26482 2.64824,1.50067 2.07445,2.16273 1.54481,2.69238 0.61792,2.20686 0.70981,-2.46524 0.15605,-2.49678 -1.2796,-3.62034 -0.81146,-1.65412 -1.31081,-0.9675 -0.18726,1.65412 -0.9675,-0.18726 -0.87388,-0.37452 -3.40186,0.0624 -2.15348,0.15605 -1.31081,0.63085 z"
       id="path17239-3" /><path
       style="fill:#ffffff;fill-opacity:1;stroke:#ffffff;stroke-width:0.865;stroke-dasharray:none;stroke-opacity:1"
       d="m -235.77119,464.60031 0.49377,-1.49748 1.32412,-0.9925 1.58894,-0.22069 3.35444,0.26482 2.64824,1.50067 2.07445,2.16273 1.54481,2.69238 0.61792,2.20686 -0.0771,3.62197 -0.92559,-2.60778 -0.56123,-2.93426 -0.74147,-1.3252 -1.2975,-1.27055 -1.93317,-1.08754 -2.78042,-1.14794 -1.23952,-0.42586 -1.58375,0.10082 -2.50695,0.95955"
       id="path17237-9" /><path
       style="fill:#800000;fill-opacity:1;stroke:#800000;stroke-width:0.865;stroke-dasharray:none;stroke-opacity:1"
       d="m -250.28409,500.70418 4.67858,-3.63711 2.20686,-3.26616 2.03031,-4.28132 0.39722,-3.31029 -0.83862,-4.06064 -0.79447,-2.03031 -2.47169,-2.29514 v 0 0 l 1.40381,-5.10835 2.77777,-3.57658 3.25054,-2.29086 1.87259,-2.24711 2.50695,-0.95955 1.58375,-0.10082 2.47903,0.85171 1.54091,0.72209 1.93317,1.08754 1.2975,1.27056 0.74147,1.32519 0.29511,1.44468 0.26612,1.48958 0.92559,2.60778 -0.47797,3.36936 0.39096,3.74517 -0.62419,3.73715 -1.62291,4.49085 -2.74646,2.04152 -0.6242,1.96472 -1.99743,2.37194 -1.37322,0.74904 -1.74775,2.62162 -2.62163,1.81278 h -2.8713 l -3.87002,1.43304 h -4.36935 z"
       id="path15278-9" /><path
       style="fill:#550000;fill-opacity:1;stroke:#550000;stroke-width:0.865;stroke-dasharray:none;stroke-opacity:1"
       d="m -240.97112,486.2093 4.28131,3.04547 2.29514,4.32546 3.11769,3.22859 -1.74775,2.62161 -2.62163,1.81279 h -2.8713 l -3.87002,1.43304 h -4.36935 l -3.52706,-1.97208 4.67858,-3.63711 2.20686,-3.26616 2.03031,-4.28132 0.39722,-3.31029"
       id="path15334-7" /><path
       style="fill:#ffff82;fill-opacity:1;stroke:#ffff82;stroke-width:0.865;stroke-dasharray:none;stroke-opacity:1"
       d="m -233.9533,462.11033 -3.12871,1.92821 -1.68532,-1.62291 -2.12227,-2.80888 -0.6242,-3.4955 1.37323,-2.30952 1.31082,-1.49807 3.62033,-0.87388 3.1834,-0.37451 3.08969,0.74903 3.96372,1.87259 2.80888,1.06113 3.37066,0.74904 4.24453,0.56177 3.05856,0.56178 3.43308,2.10992 1.87259,2.00977 1.56048,2.37252 1.5605,2.40765 1.56048,2.8333 0.12484,3.06028 -1.87259,1.89507 -2.80888,0.66413 -3.83595,-0.16613 -2.96778,-0.81009 -2.62162,-1.23967 -1.68533,-1.93494 -2.93372,-1.84316 -1.66571,1.51522 v 0 l 0.35491,-1.23262 0.15605,-2.49678 -1.2796,-3.62034 -0.81146,-1.65412 -1.31081,-0.9675 -0.67101,1.56049 -1.35763,-0.46815 -1.70093,0.0312 -2.77767,0.10923 -1.73214,0.39345 z"
       id="path17295-0" /><path
       style="fill:#ffffc1;fill-opacity:1;stroke:#ffffc1;stroke-width:0.865;stroke-dasharray:none;stroke-opacity:1"
       d="m -208.05691,458.72052 -5.49293,2.73425 -1.935,2.14683 -1.49807,2.80888 -4.91554,-2.46558 -1.45125,-3.46428 -1.31082,-0.96751 -0.67101,1.56049 -1.35763,-0.46814 -3.08975,0.0858 -2.25491,0.25134 -1.72049,0.83992 -3.32771,2.25599 -2.74645,-3.02735 -1.06114,-1.40444 -0.6242,-3.4955 2.68405,-3.80759 3.62033,-0.87388 3.1834,-0.37451 1.54485,0.37451 1.54484,0.37452 1.98186,0.93629 3.3863,1.46687 3.08977,0.90508 3.8076,0.6554 2.12226,0.28089 3.05856,0.56178 3.43308,2.10992"
       id="path18895-3" /><path
       style="fill:#550000;fill-opacity:1;stroke:#550000;stroke-width:0.865;stroke-dasharray:none;stroke-opacity:1"
       d="m -311.50256,356.71044 -4.36959,7.54748 -5.20819,6.48818 -3.97235,-2.07445 -3.97238,-2.07446 -3.61926,2.73652 -6.70885,-3.17789 13.13705,39.64648 -13.24198,44.96895 15.45243,-2.67483 15.37205,-12.7333 1.76551,-15.35978 -0.97102,-9.26884 0.92686,-8.1654 0.92689,-8.1654 -0.35308,-7.59162 -0.44138,-6.88542 0.35308,-8.73919 0.44138,-5.29647 z"
       id="path29050-9" /><path
       style="fill:#d40000;fill-opacity:1;stroke:#d40000;stroke-width:0.865;stroke-dasharray:none;stroke-opacity:1"
       d="m -352.61927,453.74405 10.08725,-0.15518 12.12078,-0.18648 11.1884,-2.05121 11.18839,-2.0512 4.94154,-1.39855 4.94152,-1.39855 9.88308,-2.7971 2.79713,-2.61062 2.79709,-2.61063 -7.65183,-6.84175 -1.81014,-0.65541 -2.1847,-0.0624 -2.09105,-1.43565 0.3433,-1.71654 -0.53057,-0.24968 0.0624,-1.09234 1.37324,-2.21589 -1.15474,-2.05985 0.15602,-3.24582 -0.62418,-2.15347 -2.84009,-2.96493 v -1.77896 l 1.43566,-1.81017 0.31207,-1.02992 v -3.15219 l 0.34333,-3.24582 1.71653,-3.71396 0.0624,-1.34202 1.59171,-1.71654 11.73488,6.33558 8.20816,-3.46428 5.58655,-1.62291 2.80889,-0.21847 -1.46687,-2.21589 -2.55918,-2.84009 -3.65157,-3.93244 -5.33686,-7.05341 -1.87259,-3.12098 -2.30952,-3.15219 -2.87131,-3.33944 -3.27702,-4.7751 -2.90251,-3.4955 -1.99742,-1.31081 -4.89995,-2.27831 -2.71526,-1.37323 -1.49807,-1.71655 -3.21461,-2.77767 -2.05983,-1.31081 -1.46685,-0.81145 -1.77898,-3.37066 -1.37321,-2.65283 -1.46688,-2.12227 -1.15475,-0.90508 -0.87389,-0.21847 1.69836,2.80888 0.73602,1.34202 0.28088,2.37195 -1.27961,3.05856 -1.68531,3.30823 -1.90381,3.40187 -2.24711,2.93372 -2.5904,2.2159 -3.62035,1.74775 -1.84035,1.15037 7.94471,4.14891 3.44271,-3.79581 3.53099,-5.38475 2.20686,-4.06063 0.79448,-1.58894 3.88408,6.62059 1.23584,3.35444 -0.44137,5.29647 -0.3531,8.73919 0.44137,6.88542 0.3531,7.59162 -1.85376,16.3308 0.97102,9.26884 -1.7655,15.35978 -21.77761,18.03927 42.14294,-9.69661 5.59421,-5.22125"
       id="path26760-8" /><path
       style="fill:#d40000;fill-opacity:1;stroke:#d40000;stroke-width:0.865;stroke-dasharray:none;stroke-opacity:1"
       d="m -339.93599,450.73674 -8.11752,2.89521 -3.04443,-0.29028 -1.31394,-0.33658 -1.59168,-0.9232 -2.03372,0.9232 -2.27328,-0.57989 -0.4369,0.37451 1.15474,-3.21461 4.48893,-23.00437 -2.37678,-18.24426 -3.8599,-9.06154 0.12483,-10.61133 -1.12356,-15.48006 -0.74903,-1.24839 -9.48778,-7.36551 -5.24324,-4.74389 -2.12225,-2.99614 -0.62421,-3.12098 0.74904,-2.49678 1.12355,-2.12226 1.74776,-0.87388 2.62162,-0.37451 3.74518,1.49806 3.62032,0.49936 2.24711,0.49936 2.99614,-0.74904 3.12097,-0.12484 h 0.99872 l 2.4915,-2.49678 3.75933,-1.60149 4.76532,0.38339 2.52707,11.15137 3.96456,4.7283 1.36176,2.07445 1.72891,1.86501 4.56582,1.69606 -2.69117,2.03479 -6.70885,-3.17789 13.13706,39.64648 z"
       id="path32363-2-4-6" /><path
       style="fill:#d38d5f;fill-opacity:1;stroke:#d38d5f;stroke-width:0.865;stroke-dasharray:none;stroke-opacity:1"
       d="m -281.27127,401.84781 11.85593,8.88441 4.35549,6.36679 11.06215,6.92858 14.79343,6.86615 10.42407,6.17954 4.18211,2.24711 1.93501,1.31081 2.74646,-0.0624 1.68533,-0.87388 0.74903,0.99871 2.37195,0.56178 4.43179,-0.24968 0.37451,-0.62419 1.68533,-0.43694 0.43694,-0.6242 -0.18726,-0.43694 1.18597,-1.37322 -3.1834,-5.43051 0.12484,-1.62291 -1.37323,-1.43565 -1.31081,-0.43693 -9.92471,1.24839 -3.68276,-1.56049 -10.61132,-9.8623 -9.92472,-9.11325 -20.16156,-12.15622 z"
       id="path36517-5" /><path
       style="fill:#502d16;fill-opacity:1;stroke:#502d16;stroke-width:0.865;stroke-dasharray:none;stroke-opacity:1"
       d="m -271.42842,398.06104 -1.45399,4.37565 1.94204,4.23718 5.88052,3.53098 v 2.38342 l 2.94696,3.79581 12.27015,7.15024 9.26884,4.41373 4.50201,0.44137 3.88408,4.06064 1.75212,3.64182 6.80511,3.88391 4.06604,-1.49126 3.61926,-0.82627 7.57628,1.22519 -0.24968,1.06113 -1.68533,0.43694 -0.37451,0.62419 -2.21589,0.12484 -2.2159,0.12484 -2.37195,-0.56178 -0.74903,-0.99871 -1.68533,0.87388 -2.74646,0.0624 -1.93501,-1.31081 -4.18211,-2.24711 -25.2175,-13.04569 -11.06215,-6.92858 -4.35549,-6.36679 -11.85593,-8.88441 z"
       id="path36573-7" /><path
       style="fill:#d38d5f;stroke:#d38d5f;stroke-width:0.865"
       d="m -373.63456,348.02846 -2.73036,-2.1427 -2.64605,-3.00889 -7.80148,-4.26259 -19.47418,-5.76703 -13.79071,-4.42975 -15.2952,-4.09543 -3.17603,1.17012 -6.51925,0.0836 -4.09543,4.59691 -0.16717,4.17901 2.42382,0.16716 1.42087,-1.92234 7.60579,1.83876 5.76704,1.92235 5.59988,-0.83581 5.09839,0.16717 14.79368,8.60875 1.25372,2.67457 13.79072,6.77 6.18493,3.42678 8.51122,1.1586 -1.37324,-3.05856 0.0624,-2.80888 0.93628,-2.30952 0.56179,-1.06114 3.05855,-1.06113"
       id="path542-6" /><path
       style="fill:#502d16;stroke:#502d16;stroke-width:0.865"
       d="m -429.31294,335.93972 2.21485,-2.67457 9.2774,0.33432 8.8595,4.09543 6.35209,2.84173 1.83877,4.38955 1.42087,2.46402 7.18788,2.92531 5.34913,3.84469 8.55885,1.10893 1.37324,3.05855 -8.51122,-1.15859 -19.97565,-10.19679 -1.25372,-2.67457 -14.79368,-8.60875 -5.09839,-0.16716 z"
       id="path706-2" /><path
       id="path939"
       style="fill:#d38d5f;stroke:#d38d5f;stroke-width:0.865"
       d="m -329.75713,316.64114 c -0.13124,-0.001 -0.26281,0.002 -0.39429,0.008 -4.20737,0.20853 -8.53971,4.3399 -12.87209,8.47131 l -0.71365,9.31933 1.4149,6.33605 8.01657,15.08332 4.29483,2.66857 h 3.76979 l 3.42873,-3.14917 4.59765,-15.80523 1.06351,-7.85224 -0.62942,-7.85275 c -3.9541,-3.59778 -7.90814,-7.1957 -11.97653,-7.22746 z" /><path
       style="fill:#ffffc1;fill-opacity:1;stroke:#ffffc1;stroke-width:0.865;stroke-opacity:1"
       d="m -343.0235,325.12071 4.55834,-1.25193 5.44658,-2.67703 2.57377,1.55615 2.25033,-0.77806 4.20164,1.08932 6.21225,0.80944 v 0 l 0.3147,3.92636 0.17526,2.18662 0.91178,0.41992 v -7.08255 l -1.55734,-3.61212 -3.54129,-4.7453 -5.2411,-1.41653 h -6.37429 l -3.82458,1.91231 -4.74533,4.03704 -3.11631,4.10789 -0.49578,5.94937 1.10154,1.48733 z"
       id="path1387" /></g></svg>
